<svg xmlns="http://www.w3.org/2000/svg" xmlns:xlink="http://www.w3.org/1999/xlink" id="Layer_1" x="0px" y="0px" viewBox="0 0 512 512" style="enable-background:new 0 0 512 512;" xml:space="preserve"><path style="fill:#CAF9F4;" d="M224.599,416.06H28.396c-11.407,0-20.653-9.246-20.653-20.653v-95.461 c0-25.643,23.12-45.088,48.384-40.695l112.111,19.497c44.516,7.742,77.014,46.379,77.014,91.564v25.094 C245.252,406.813,236.005,416.06,224.599,416.06z"></path><path style="fill:#4B92B9;" d="M167.392,278.605v19.021c0,13.073-11.999,22.863-24.815,20.23l-59.202-12.165 c-9.604-1.983-16.502-10.43-16.502-20.23v-24.34L167.392,278.605z"></path><path style="fill:#79CAE8;" d="M245.254,387.146v8.261c0,11.411-9.253,20.653-20.653,20.653H28.398 c-11.411,0-20.653-9.242-20.653-20.653v-8.261H245.254z"></path><circle style="fill:#4B92B9;" cx="86.154" cy="387.666" r="51.632"></circle><circle style="fill:#FFFFFF;" cx="86.154" cy="387.666" r="25.816"></circle><g>	<path style="fill:#4B92B9;" d="M430.096,299.371L430.096,299.371c-8.554,0-15.49-6.935-15.49-15.49V176.486  c0-8.554,6.935-15.49,15.49-15.49l0,0c8.554,0,15.49,6.935,15.49,15.49v107.395C445.585,292.436,438.65,299.371,430.096,299.371z"></path>	<polygon style="fill:#4B92B9;" points="498.25,439.295 361.941,439.295 382.594,405.218 477.597,405.218  "></polygon></g><path d="M86.154,354.102c-18.506,0-33.561,15.055-33.561,33.561s15.055,33.561,33.561,33.561s33.561-15.055,33.561-33.561 S104.66,354.102,86.154,354.102z M86.154,405.734c-9.964,0-18.071-8.107-18.071-18.071s8.107-18.071,18.071-18.071 s18.071,8.107,18.071,18.071S96.118,405.734,86.154,405.734z"></path><path d="M422.351,143.617v10.967c-9.014,3.197-15.49,11.806-15.49,21.902v107.395c0,10.096,6.476,18.705,15.49,21.902v78.781h15.49 v-78.781c9.014-3.197,15.49-11.806,15.49-21.902V176.486c0-10.096-6.476-18.705-15.49-21.902v-10.967 c0-43.371-35.286-78.657-78.657-78.657s-78.657,35.286-78.657,78.657v118.631c0,24.2-19.688,43.888-43.888,43.888h-6.694 c-14.846-17.958-35.909-30.758-60.38-35.015L57.454,251.624c-14.291-2.488-28.86,1.441-39.968,10.78 C6.373,271.747,0,285.431,0,299.948v95.458c0,15.658,12.74,28.398,28.398,28.398H39.09c10.864,14.114,27.915,23.235,47.064,23.235 c19.148,0,36.198-9.12,47.064-23.235h91.383c15.658,0,28.398-12.74,28.398-28.398v-25.093c0-17.627-4.549-34.295-12.594-48.822 c30.992-1.951,55.612-27.77,55.612-59.245V143.616c0-34.83,28.336-63.167,63.167-63.167S422.351,108.786,422.351,143.617z  M437.84,283.881c0,4.271-3.474,7.745-7.745,7.745s-7.745-3.474-7.745-7.745V176.486c0-4.271,3.474-7.745,7.745-7.745 s7.745,3.474,7.745,7.745V283.881z M74.619,270.33l85.029,14.786v12.509c0,3.894-1.732,7.541-4.752,10.002 c-3.019,2.462-6.945,3.425-10.759,2.642l-59.194-12.163c-5.982-1.235-10.323-6.553-10.323-12.645V270.33z M27.455,274.257 c7.598-6.39,17.561-9.075,27.342-7.375l4.331,0.753v17.826c0,13.403,9.539,25.102,22.688,27.815l59.202,12.165 c1.917,0.393,3.844,0.587,5.757,0.587c6.474,0,12.782-2.216,17.909-6.396c6.643-5.416,10.452-13.438,10.452-22.007v-9.385 c36.598,10.126,62.372,43.395,62.372,82.074v9.087h-92.565c-4.035-28.843-28.853-51.116-58.79-51.116s-54.756,22.273-58.79,51.116 H15.49v-79.452C15.49,290.015,19.852,280.651,27.455,274.257z M28.398,408.315c-7.118,0-12.908-5.79-12.908-12.908v-0.516h11.742 c0.569,4.66,1.668,9.159,3.255,13.424H28.398z M86.154,431.55c-24.2,0-43.888-19.687-43.888-43.888 c0-24.2,19.687-43.888,43.888-43.888s43.888,19.687,43.888,43.888C130.041,411.863,110.353,431.55,86.154,431.55z M224.601,408.315 H141.82c1.587-4.266,2.686-8.764,3.255-13.424h92.434v0.516C237.509,402.524,231.719,408.315,224.601,408.315z"></path><path d="M481.96,397.473H378.231L348.19,447.04H512L481.96,397.473z M386.957,412.962h86.279l11.265,18.588h-108.81L386.957,412.962 z"></path><g></g><g></g><g></g><g></g><g></g><g></g><g></g><g></g><g></g><g></g><g></g><g></g><g></g><g></g><g></g></svg>